<svg width="20" height="20" viewBox="0 0 20 20" fill="none" xmlns="http://www.w3.org/2000/svg">
<path d="M6 9.5L6 5.5C6 3.29086 7.79086 1.5 10 1.5V1.5C12.2091 1.5 14 3.29086 14 5.5L14 9.5" stroke="black" stroke-width="2" stroke-linecap="round"/>
<path d="M1.69435 10.1678C1.83942 8.42692 1.91196 7.55647 2.48605 7.02824C3.06013 6.5 3.9336 6.5 5.68053 6.5H14.3195C16.0664 6.5 16.9399 6.5 17.514 7.02824C18.088 7.55647 18.1606 8.42692 18.3057 10.1678L18.8195 16.3339C18.904 17.3474 18.9462 17.8542 18.6491 18.1771C18.352 18.5 17.8435 18.5 16.8264 18.5H3.1736C2.15655 18.5 1.64802 18.5 1.35092 18.1771C1.05382 17.8542 1.09605 17.3474 1.18051 16.3339L1.69435 10.1678Z" stroke="black" stroke-width="2"/>
</svg>
