<svg width="89" height="66" viewBox="0 0 89 66" fill="none" xmlns="http://www.w3.org/2000/svg">
<path d="M37.6654 4.21837L44.5013 12.3745L51.3373 4.21837H37.6654ZM54.4936 6.59504L48.8373 13.3392H58.9155L54.4936 6.59504ZM58.3999 17.5488H44.5013H30.6028L44.5013 34.7643L58.3999 17.5488ZM30.0872 13.3392H40.1654L34.5091 6.59504L30.0872 13.3392ZM64.0171 16.856L45.892 39.3072C45.5404 39.7457 45.0326 40 44.5013 40C43.9701 40 43.4701 39.7457 43.1107 39.3072L24.9856 16.856C24.3841 16.1105 24.3372 14.9967 24.8684 14.1899L33.6185 0.859461C33.97 0.32449 34.5325 0 35.1263 0H53.8764C54.4701 0 55.0326 0.31572 55.3842 0.859461L64.1343 14.1899C64.6655 14.9967 64.6108 16.1105 64.0171 16.856Z" fill="#71675D"/>
<path d="M0.9 50.28C0.9 48.8533 1.52 47.7333 2.76 46.92C4 46.1067 5.42667 45.7 7.04 45.7C9.10667 45.7 10.92 46.2933 12.48 47.48C13.2533 48.08 13.8533 48.88 14.28 49.88C14.7067 50.8667 14.92 51.96 14.92 53.16C14.92 55.52 14.2467 57.44 12.9 58.92C11.5 60.4267 9.74667 61.18 7.64 61.18C7.17333 61.18 6.68 61.12 6.16 61C5.64 60.88 5.22667 60.72 4.92 60.52C4.42667 60.8933 3.79333 61.08 3.02 61.08C2.26 61.08 1.66667 60.8667 1.24 60.44C0.813333 60.0133 0.6 59.4667 0.6 58.8C0.6 57.2267 1.79333 55.8867 4.18 54.78C4.24667 54.22 4.34 53.4667 4.46 52.52C4.59333 51.56 4.69333 50.7867 4.76 50.2C4.84 49.6133 4.89333 49.2267 4.92 49.04C5.46667 48.6933 6.1 48.52 6.82 48.52C7.15333 48.52 7.47333 48.5533 7.78 48.62L6.52 57.16C6.4 57.92 6.23333 58.5533 6.02 59.06C6.43333 59.1667 6.76667 59.22 7.02 59.22C8.55333 59.22 9.74 58.64 10.58 57.48C11.4467 56.2667 11.88 54.8 11.88 53.08C11.88 50.88 11.0867 49.3 9.5 48.34C8.62 47.8067 7.65333 47.54 6.6 47.54C5.25333 47.54 4.18667 47.9067 3.4 48.64C2.94667 49.0533 2.72 49.5533 2.72 50.14C2.72 50.4467 2.81333 50.74 3 51.02C3.18667 51.2867 3.51333 51.44 3.98 51.48L3.78 52.78C2.80667 52.7267 2.08 52.46 1.6 51.98C1.13333 51.4867 0.9 50.92 0.9 50.28ZM2.08 58.54C2.08 59.02 2.30667 59.26 2.76 59.26C2.94667 59.26 3.14 59.14 3.34 58.9C3.55333 58.6467 3.7 58.2533 3.78 57.72L3.96 56.48C2.70667 57.1867 2.08 57.8733 2.08 58.54ZM17.0628 46.28C17.3695 45.96 17.7428 45.8 18.1828 45.8C18.6228 45.8 18.9961 45.96 19.3028 46.28C19.6228 46.5867 19.7828 46.96 19.7828 47.4C19.7828 47.84 19.6228 48.2133 19.3028 48.52C18.9961 48.8267 18.6228 48.98 18.1828 48.98C17.7428 48.98 17.3695 48.8267 17.0628 48.52C16.7561 48.2133 16.6028 47.84 16.6028 47.4C16.6028 46.96 16.7561 46.5867 17.0628 46.28ZM16.2428 52.14C16.3761 51.9 16.6295 51.72 17.0028 51.6C17.3761 51.4667 17.7428 51.4 18.1028 51.4C18.4761 51.4 18.8028 51.4467 19.0828 51.54C18.5628 55.5533 18.3028 57.58 18.3028 57.62C18.2361 57.8867 18.2028 58.1133 18.2028 58.3C18.2028 58.4733 18.2161 58.6267 18.2428 58.76C18.2961 59.1067 18.5361 59.28 18.9628 59.28C19.4028 59.28 19.8028 59 20.1628 58.44C20.5361 57.8667 20.8161 57.22 21.0028 56.5C21.0961 56.5533 21.2428 56.7133 21.4428 56.98C21.6428 57.2467 21.7628 57.4467 21.8028 57.58C21.5361 58.6467 21.0828 59.5067 20.4428 60.16C19.8028 60.8133 19.0361 61.14 18.1428 61.14C17.2495 61.14 16.5828 60.92 16.1428 60.48C15.7161 60.04 15.5028 59.4733 15.5028 58.78C15.5028 58.6333 15.5095 58.48 15.5228 58.32L16.2428 52.14ZM29.0717 61.1C27.8451 61.1 27.0317 60.6733 26.6317 59.82C25.9384 60.6867 25.0451 61.12 23.9517 61.12C22.8717 61.12 21.9584 60.7533 21.2117 60.02C20.4784 59.2867 20.1117 58.32 20.1117 57.12C20.1117 55.3733 20.6251 53.98 21.6517 52.94C22.6784 51.9 23.9784 51.38 25.5517 51.38C25.5917 51.38 25.6317 51.38 25.6717 51.38C26.3384 51.38 26.9517 51.4933 27.5117 51.72C27.8717 51.4933 28.3051 51.38 28.8117 51.38C29.3317 51.38 29.7051 51.4467 29.9317 51.58C29.8117 52.5667 29.6851 53.54 29.5517 54.5C29.4184 55.4467 29.3251 56.12 29.2717 56.52C29.1517 57.4267 29.0917 58.08 29.0917 58.48C29.0917 59.0133 29.3051 59.28 29.7317 59.28C30.0651 59.28 30.4184 59.06 30.7917 58.62C31.1651 58.1667 31.4917 57.46 31.7717 56.5C32.1584 56.8467 32.4251 57.2333 32.5717 57.66C32.1851 58.9267 31.6651 59.82 31.0117 60.34C30.3584 60.8467 29.7117 61.1 29.0717 61.1ZM25.8517 52.94C24.9984 52.94 24.3184 53.2667 23.8117 53.92C23.3184 54.56 23.0251 55.52 22.9317 56.8C22.9184 56.92 22.9117 57.0333 22.9117 57.14C22.9117 57.7933 23.0651 58.3133 23.3717 58.7C23.6917 59.0867 24.0984 59.28 24.5917 59.28C25.4317 59.28 26.0651 58.6867 26.4917 57.5L26.9717 53.18C26.5851 53.02 26.2117 52.94 25.8517 52.94ZM36.7688 61L37.5288 54.36C37.5288 53.9867 37.4354 53.68 37.2488 53.44C37.0754 53.1867 36.7621 53.06 36.3088 53.06C35.8554 53.06 35.4821 53.28 35.1888 53.72C34.8954 54.1467 34.7088 54.6 34.6288 55.08C34.1621 58.4 33.9021 60.3733 33.8488 61H31.1688L32.2688 51.6C32.8288 51.4533 33.2554 51.38 33.5488 51.38C34.3888 51.38 34.8488 51.66 34.9288 52.22C35.5821 51.66 36.2954 51.38 37.0688 51.38C38.6154 51.38 39.6021 51.84 40.0288 52.76C40.6821 51.8267 41.6154 51.36 42.8288 51.36C43.7221 51.36 44.4288 51.5933 44.9488 52.06C45.4688 52.5133 45.7288 53.0867 45.7288 53.78C45.7288 53.98 45.6888 54.3333 45.6088 54.84C45.3021 56.84 45.1488 58.0133 45.1488 58.36C45.1488 58.9867 45.3554 59.3 45.7688 59.3C46.1154 59.3 46.4821 59.0733 46.8688 58.62C47.2688 58.1533 47.5888 57.44 47.8288 56.48C48.2821 56.96 48.5554 57.34 48.6488 57.62C47.9554 59.94 46.7288 61.1 44.9688 61.1C44.1421 61.1 43.5288 60.8467 43.1288 60.34C42.7288 59.8333 42.5288 59.3 42.5288 58.74L43.0088 54.32C43.0088 53.96 42.9154 53.66 42.7288 53.42C42.5421 53.18 42.2421 53.06 41.8288 53.06C41.4288 53.06 41.0754 53.2133 40.7688 53.52C40.4621 53.8267 40.2488 54.22 40.1288 54.7C39.7288 58.0867 39.4688 60.1867 39.3488 61H36.7688ZM52.443 51.38C53.6696 51.38 54.6896 51.7733 55.503 52.56C56.3296 53.3467 56.743 54.3067 56.743 55.44C56.743 57.16 56.2363 58.54 55.223 59.58C54.223 60.6067 53.0096 61.12 51.583 61.12C50.1563 61.12 49.023 60.7133 48.183 59.9C47.3563 59.0867 46.943 58.08 46.943 56.88C46.943 55.2 47.4563 53.8667 48.483 52.88C49.523 51.88 50.843 51.38 52.443 51.38ZM52.043 53C51.4163 53 50.8896 53.36 50.463 54.08C50.0363 54.8 49.803 55.7067 49.763 56.8C49.763 57.5733 49.9163 58.2133 50.223 58.72C50.543 59.2267 51.023 59.48 51.663 59.48C52.303 59.48 52.8363 59.1267 53.263 58.42C53.703 57.7133 53.923 56.9067 53.923 56C53.923 55.0933 53.7696 54.3733 53.463 53.84C53.1563 53.28 52.683 53 52.043 53ZM63.2936 58.76L63.7736 54.3C63.7736 53.94 63.6803 53.64 63.4936 53.4C63.3069 53.16 62.9936 53.04 62.5536 53.04C62.1269 53.04 61.7603 53.2333 61.4536 53.62C61.1603 53.9933 60.9736 54.4667 60.8936 55.04C60.4136 58.6933 60.1603 60.68 60.1336 61H57.4336L58.5336 51.58C59.0936 51.4333 59.5203 51.36 59.8136 51.36C60.7069 51.36 61.1736 51.6867 61.2136 52.34C61.8669 51.7 62.6469 51.38 63.5536 51.38C64.4736 51.38 65.1936 51.6067 65.7136 52.06C66.2336 52.5133 66.4936 53.0867 66.4936 53.78C66.4936 53.9667 66.4536 54.32 66.3736 54.84C66.0669 56.8667 65.9136 58.0467 65.9136 58.38C65.9136 58.9933 66.1203 59.3 66.5336 59.3C67.4403 59.3 68.1269 58.3533 68.5936 56.46C69.0469 56.94 69.3203 57.32 69.4136 57.6C68.7069 59.9467 67.4803 61.12 65.7336 61.12C64.9069 61.12 64.2936 60.8667 63.8936 60.36C63.4936 59.8533 63.2936 59.32 63.2936 58.76ZM75.6047 46.58C75.698 46.3533 75.9047 46.1667 76.2247 46.02C76.558 45.86 76.9514 45.78 77.4047 45.78C77.8714 45.78 78.218 45.8467 78.4447 45.98C78.3114 47.02 78.098 48.6533 77.8047 50.88C77.1914 55.5333 76.8847 58.1 76.8847 58.58C76.8847 59.0467 77.0847 59.28 77.4847 59.28C77.8314 59.28 78.1914 59.0667 78.5647 58.64C78.938 58.2 79.278 57.4867 79.5847 56.5C79.958 56.86 80.218 57.2533 80.3647 57.68C79.8847 59.2667 79.1314 60.2933 78.1047 60.76C77.638 60.9867 77.198 61.1 76.7847 61.1C75.598 61.1 74.8047 60.6733 74.4047 59.82C73.7114 60.6867 72.8247 61.12 71.7447 61.12C70.6647 61.12 69.7514 60.7533 69.0047 60.02C68.2714 59.2867 67.9047 58.32 67.9047 57.12C67.9047 55.3733 68.418 53.98 69.4447 52.94C70.4714 51.9 71.7714 51.38 73.3447 51.38C73.3847 51.38 73.4247 51.38 73.4647 51.38C74.0114 51.38 74.5247 51.46 75.0047 51.62L75.6047 46.58ZM73.6447 52.94C72.7914 52.94 72.1114 53.2667 71.6047 53.92C71.1114 54.56 70.818 55.52 70.7247 56.8C70.7114 56.92 70.7047 57.0333 70.7047 57.14C70.7047 57.7933 70.858 58.3133 71.1647 58.7C71.4847 59.0867 71.8914 59.28 72.3847 59.28C73.2247 59.28 73.858 58.6867 74.2847 57.5L74.8047 53.2C74.3647 53.0267 73.978 52.94 73.6447 52.94ZM87.2817 54.88C88.3351 55.6533 88.8617 56.5667 88.8617 57.62C88.8617 58.6733 88.4484 59.52 87.6217 60.16C86.7951 60.8 85.7551 61.12 84.5017 61.12C83.6884 61.12 83.0084 60.92 82.4617 60.52C81.9284 60.1067 81.6617 59.6 81.6617 59C81.6617 58.4 81.8617 57.9267 82.2617 57.58C82.6617 57.22 83.1617 57 83.7617 56.92C83.4817 57.32 83.3417 57.7067 83.3417 58.08C83.3417 58.44 83.4684 58.7333 83.7217 58.96C83.9751 59.1867 84.2951 59.3 84.6817 59.3C85.0684 59.3 85.3884 59.16 85.6417 58.88C85.8951 58.5867 86.0217 58.2533 86.0217 57.88C86.0217 57.2667 85.7351 56.72 85.1617 56.24C84.8151 55.96 84.4417 55.7 84.0417 55.46C83.6417 55.2067 83.4284 55.0733 83.4017 55.06C83.3484 55.02 83.2951 54.9867 83.2417 54.96C83.0017 55.24 82.6551 55.6267 82.2017 56.12C81.7484 56.6 81.3884 56.9867 81.1217 57.28C80.3751 58.0933 79.9551 58.7733 79.8617 59.32C79.8351 59.4267 79.8217 59.6333 79.8217 59.94C79.8217 60.2333 79.9084 60.54 80.0817 60.86C80.2684 61.18 80.4884 61.42 80.7417 61.58C80.9951 61.74 81.2417 61.8667 81.4817 61.96C81.7351 62.0667 81.9484 62.14 82.1217 62.18C82.3084 62.22 82.4017 62.2467 82.4017 62.26C82.4017 62.3533 82.2551 62.46 81.9617 62.58C81.4151 62.78 80.8417 62.88 80.2417 62.88C79.6551 62.88 79.0817 62.6667 78.5217 62.24C77.7617 61.6533 77.3817 60.8733 77.3817 59.9C77.3817 59.3 77.5351 58.7067 77.8417 58.12C78.3884 57.08 79.6684 55.6533 81.6817 53.84C81.1884 53.3467 80.9417 52.82 80.9417 52.26C80.9417 51.7 81.1484 51.2267 81.5617 50.84C81.9884 50.4533 82.4884 50.26 83.0617 50.26C83.5817 50.26 84.0351 50.4667 84.4217 50.88C84.6751 51.16 84.8017 51.5133 84.8017 51.94C84.8017 52.3667 84.6617 52.8467 84.3817 53.38C85.8084 54.02 86.7751 54.52 87.2817 54.88ZM82.9417 52.62C83.2617 52.2867 83.4217 52.0467 83.4217 51.9C83.4217 51.5667 83.2751 51.3867 82.9817 51.36C82.6484 51.36 82.4817 51.5467 82.4817 51.92C82.4817 52.1467 82.6351 52.38 82.9417 52.62Z" fill="white"/>
</svg>
