<svg width="40" height="40" viewBox="0 0 40 40" fill="none" xmlns="http://www.w3.org/2000/svg">
<circle cx="20" cy="20" r="19.5" fill="#111111" stroke="#494949"/>
<g clip-path="url(#clip0_122_475)">
<path d="M20.0028 11C16.2457 11 15.1467 11.0039 14.9329 11.0214C14.162 11.0858 13.6821 11.2071 13.1593 11.4676C12.7564 11.6676 12.4386 11.8996 12.1254 12.2248C11.5541 12.8176 11.2081 13.5471 11.083 14.414C11.0222 14.8348 11.0042 14.921 11.0007 17.0711C10.9993 17.788 11.0007 18.7312 11.0007 19.9965C11.0007 23.7519 11.0049 24.8498 11.0229 25.0632C11.0851 25.8138 11.2029 26.2859 11.4521 26.8024C11.9285 27.791 12.838 28.5331 13.9092 28.8102C14.2801 28.9058 14.69 28.9582 15.216 28.9831C15.4388 28.993 17.7106 28.9996 19.9838 28.9996C22.257 28.9996 24.5299 28.9968 24.7475 28.9859C25.3568 28.9571 25.7104 28.9097 26.1014 28.8088C27.1796 28.5303 28.0726 27.7994 28.5585 26.7968C28.8028 26.2926 28.9265 25.8025 28.9828 25.0913C28.9951 24.9363 29 22.4634 29 19.994C29 17.5243 28.9944 15.056 28.9824 14.9009C28.9258 14.1781 28.8017 13.6919 28.5497 13.1783C28.3426 12.7578 28.113 12.4435 27.7794 12.1225C27.1838 11.5537 26.4558 11.2074 25.5881 11.0823C25.1673 11.0218 25.0836 11.0039 22.9324 11H20.0028Z" fill="white"/>
<path d="M20.0028 11C16.2457 11 15.1467 11.0039 14.9329 11.0214C14.162 11.0858 13.6821 11.2071 13.1593 11.4676C12.7564 11.6676 12.4386 11.8996 12.1254 12.2248C11.5541 12.8176 11.2081 13.5471 11.083 14.414C11.0222 14.8348 11.0042 14.921 11.0007 17.0711C10.9993 17.788 11.0007 18.7312 11.0007 19.9965C11.0007 23.7519 11.0049 24.8498 11.0229 25.0632C11.0851 25.8138 11.2029 26.2859 11.4521 26.8024C11.9285 27.791 12.838 28.5331 13.9092 28.8102C14.2801 28.9058 14.69 28.9582 15.216 28.9831C15.4388 28.993 17.7106 28.9996 19.9838 28.9996C22.257 28.9996 24.5299 28.9968 24.7475 28.9859C25.3568 28.9571 25.7104 28.9097 26.1014 28.8088C27.1796 28.5303 28.0726 27.7994 28.5585 26.7968C28.8028 26.2926 28.9265 25.8025 28.9828 25.0913C28.9951 24.9363 29 22.4634 29 19.994C29 17.5243 28.9944 15.056 28.9824 14.9009C28.9258 14.1781 28.8017 13.6919 28.5497 13.1783C28.3426 12.7578 28.113 12.4435 27.7794 12.1225C27.1838 11.5537 26.4558 11.2074 25.5881 11.0823C25.1673 11.0218 25.0836 11.0039 22.9324 11H20.0028Z" fill="white"/>
<path d="M20.0028 11C16.2457 11 15.1467 11.0039 14.9329 11.0214C14.162 11.0858 13.6821 11.2071 13.1593 11.4676C12.7564 11.6676 12.4386 11.8996 12.1254 12.2248C11.5541 12.8176 11.2081 13.5471 11.083 14.414C11.0222 14.8348 11.0042 14.921 11.0007 17.0711C10.9993 17.788 11.0007 18.7312 11.0007 19.9965C11.0007 23.7519 11.0049 24.8498 11.0229 25.0632C11.0851 25.8138 11.2029 26.2859 11.4521 26.8024C11.9285 27.791 12.838 28.5331 13.9092 28.8102C14.2801 28.9058 14.69 28.9582 15.216 28.9831C15.4388 28.993 17.7106 28.9996 19.9838 28.9996C22.257 28.9996 24.5299 28.9968 24.7475 28.9859C25.3568 28.9571 25.7104 28.9097 26.1014 28.8088C27.1796 28.5303 28.0726 27.7994 28.5585 26.7968C28.8028 26.2926 28.9265 25.8025 28.9828 25.0913C28.9951 24.9363 29 22.4634 29 19.994C29 17.5243 28.9944 15.056 28.9824 14.9009C28.9258 14.1781 28.8017 13.6919 28.5497 13.1783C28.3426 12.7578 28.113 12.4435 27.7794 12.1225C27.1838 11.5537 26.4558 11.2074 25.5881 11.0823C25.1673 11.0218 25.0836 11.0039 22.9324 11H20.0028Z" fill="white"/>
<path d="M20.0028 11C16.2457 11 15.1467 11.0039 14.9329 11.0214C14.162 11.0858 13.6821 11.2071 13.1593 11.4676C12.7564 11.6676 12.4386 11.8996 12.1254 12.2248C11.5541 12.8176 11.2081 13.5471 11.083 14.414C11.0222 14.8348 11.0042 14.921 11.0007 17.0711C10.9993 17.788 11.0007 18.7312 11.0007 19.9965C11.0007 23.7519 11.0049 24.8498 11.0229 25.0632C11.0851 25.8138 11.2029 26.2859 11.4521 26.8024C11.9285 27.791 12.838 28.5331 13.9092 28.8102C14.2801 28.9058 14.69 28.9582 15.216 28.9831C15.4388 28.993 17.7106 28.9996 19.9838 28.9996C22.257 28.9996 24.5299 28.9968 24.7475 28.9859C25.3568 28.9571 25.7104 28.9097 26.1014 28.8088C27.1796 28.5303 28.0726 27.7994 28.5585 26.7968C28.8028 26.2926 28.9265 25.8025 28.9828 25.0913C28.9951 24.9363 29 22.4634 29 19.994C29 17.5243 28.9944 15.056 28.9824 14.9009C28.9258 14.1781 28.8017 13.6919 28.5497 13.1783C28.3426 12.7578 28.113 12.4435 27.7794 12.1225C27.1838 11.5537 26.4558 11.2074 25.5881 11.0823C25.1673 11.0218 25.0836 11.0039 22.9324 11H20.0028Z" fill="white"/>
<path d="M20.0035 13.3113C18.1859 13.3113 17.9578 13.3194 17.2441 13.3517C16.5315 13.3844 16.0453 13.4969 15.6199 13.6625C15.1797 13.8333 14.8064 14.0619 14.4344 14.4335C14.0621 14.8051 13.8336 15.1784 13.662 15.6179C13.4961 16.0433 13.3832 16.5295 13.3513 17.241C13.3193 17.9544 13.3108 18.1825 13.3108 19.9987C13.3108 21.8149 13.3189 22.0423 13.3513 22.7557C13.3839 23.4676 13.4968 23.9534 13.662 24.3788C13.8332 24.8186 14.0618 25.1916 14.4341 25.5636C14.806 25.9355 15.1794 26.1648 15.6192 26.3356C16.0449 26.5008 16.5315 26.6137 17.2438 26.6464C17.9578 26.6787 18.1856 26.6868 20.0032 26.6868C21.8207 26.6868 22.0482 26.6787 22.7622 26.6464C23.4748 26.6137 23.9618 26.5012 24.3875 26.3356C24.8277 26.1648 25.2003 25.9359 25.5723 25.5639C25.9446 25.1923 26.1731 24.819 26.3446 24.3795C26.5092 23.9541 26.622 23.4679 26.6554 22.7564C26.6874 22.043 26.6959 21.8156 26.6959 19.9994C26.6959 18.1832 26.6874 17.9551 26.6554 17.2417C26.622 16.5298 26.5092 16.044 26.3446 15.6186C26.1731 15.1788 25.9446 14.8058 25.5723 14.4338C25.2 14.0619 24.8277 13.8333 24.3871 13.6625C23.9604 13.4973 23.4738 13.3844 22.7615 13.3517C22.0475 13.3194 21.8204 13.3113 20.0021 13.3113H20.0035ZM19.4034 14.5164C19.5816 14.5161 19.7803 14.5164 20.0039 14.5164C21.7909 14.5164 22.0025 14.5228 22.7081 14.5548C23.3606 14.5846 23.7146 14.6936 23.9505 14.785C24.2627 14.9063 24.4856 15.0512 24.7197 15.2853C24.9539 15.5194 25.0991 15.7423 25.2207 16.0545C25.3125 16.2901 25.4214 16.6437 25.4513 17.2959C25.4833 18.0008 25.4904 18.2128 25.4904 19.9973C25.4904 21.7822 25.4833 21.9938 25.4513 22.6987C25.4214 23.3509 25.3125 23.7045 25.2207 23.9401C25.0994 24.2523 24.9542 24.4744 24.7197 24.7082C24.4856 24.9424 24.263 25.0872 23.9505 25.2085C23.715 25.3006 23.3606 25.4092 22.7081 25.4388C22.0025 25.4708 21.7905 25.4778 20.0039 25.4778C18.2169 25.4778 18.0049 25.4708 17.2996 25.4388C16.6471 25.4085 16.2931 25.2999 16.0569 25.2082C15.7447 25.0869 15.5214 24.942 15.2873 24.7079C15.0532 24.4737 14.908 24.2516 14.7863 23.9394C14.6946 23.7038 14.5856 23.3501 14.5557 22.698C14.5237 21.9931 14.5174 21.7811 14.5174 19.9955C14.5174 18.2096 14.5237 17.999 14.5557 17.2941C14.5856 16.642 14.6946 16.2883 14.7863 16.0524C14.9076 15.7402 15.0528 15.5173 15.2873 15.2832C15.5214 15.0491 15.7447 14.9042 16.0569 14.7826C16.2928 14.6905 16.6471 14.5818 17.2996 14.5519C17.917 14.5242 18.1564 14.5157 19.4038 14.5143L19.4034 14.5164ZM23.5761 15.627C23.1328 15.627 22.7731 15.986 22.7731 16.4293C22.7731 16.8723 23.1328 17.2319 23.5761 17.2319C24.0194 17.2319 24.3791 16.8726 24.3791 16.4293C24.3791 15.986 24.0194 15.6267 23.5761 15.627ZM20.0035 16.5646C18.1054 16.5646 16.5666 18.1024 16.5666 19.9991C16.5666 21.8957 18.1054 23.4328 20.0035 23.4328C21.9016 23.4328 23.4397 21.8957 23.4397 19.9991C23.4397 18.1024 21.9016 16.5646 20.0035 16.5646ZM20.0035 17.7698C21.2354 17.7698 22.2345 18.7679 22.2345 19.9991C22.2345 21.2302 21.2357 22.2283 20.0035 22.2283C18.7713 22.2283 17.7725 21.2302 17.7725 19.9991C17.7729 18.7675 18.7716 17.7698 20.0035 17.7698Z" fill="#494949"/>
</g>
<defs>
<clipPath id="clip0_122_475">
<rect width="18" height="18" fill="white" transform="translate(11 11)"/>
</clipPath>
</defs>
</svg>
