<svg width="45" height="27" viewBox="0 0 45 27" fill="none" xmlns="http://www.w3.org/2000/svg">
<path d="M19.937 1.58189L22.5005 4.64043L25.064 1.58189H19.937ZM26.2476 2.47314L24.1265 5.00219H27.9058L26.2476 2.47314ZM27.7124 6.58079H22.5005H17.2886L22.5005 13.0366L27.7124 6.58079ZM17.0952 5.00219H20.8745L18.7534 2.47314L17.0952 5.00219ZM29.8189 6.32098L23.022 14.7402C22.8902 14.9046 22.6997 15 22.5005 15C22.3013 15 22.1138 14.9046 21.979 14.7402L15.1821 6.32098C14.9565 6.04144 14.9389 5.62377 15.1382 5.3212L18.4194 0.322298C18.5513 0.121684 18.7622 0 18.9849 0H26.0161C26.2388 0 26.4497 0.118395 26.5816 0.322298L29.8628 5.3212C30.0621 5.62377 30.0416 6.04144 29.8189 6.32098Z" fill="#71675D"/>
<path d="M0.45 19.64C0.45 18.9267 0.76 18.3667 1.38 17.96C2 17.5533 2.71333 17.35 3.52 17.35C4.55333 17.35 5.46 17.6467 6.24 18.24C6.62667 18.54 6.92667 18.94 7.14 19.44C7.35333 19.9333 7.46 20.48 7.46 21.08C7.46 22.26 7.12333 23.22 6.45 23.96C5.75 24.7133 4.87333 25.09 3.82 25.09C3.58667 25.09 3.34 25.06 3.08 25C2.82 24.94 2.61333 24.86 2.46 24.76C2.21333 24.9467 1.89667 25.04 1.51 25.04C1.13 25.04 0.833333 24.9333 0.62 24.72C0.406667 24.5067 0.3 24.2333 0.3 23.9C0.3 23.1133 0.896667 22.4433 2.09 21.89C2.12333 21.61 2.17 21.2333 2.23 20.76C2.29667 20.28 2.34667 19.8933 2.38 19.6C2.42 19.3067 2.44667 19.1133 2.46 19.02C2.73333 18.8467 3.05 18.76 3.41 18.76C3.57667 18.76 3.73667 18.7767 3.89 18.81L3.26 23.08C3.2 23.46 3.11667 23.7767 3.01 24.03C3.21667 24.0833 3.38333 24.11 3.51 24.11C4.27667 24.11 4.87 23.82 5.29 23.24C5.72333 22.6333 5.94 21.9 5.94 21.04C5.94 19.94 5.54333 19.15 4.75 18.67C4.31 18.4033 3.82667 18.27 3.3 18.27C2.62667 18.27 2.09333 18.4533 1.7 18.82C1.47333 19.0267 1.36 19.2767 1.36 19.57C1.36 19.7233 1.40667 19.87 1.5 20.01C1.59333 20.1433 1.75667 20.22 1.99 20.24L1.89 20.89C1.40333 20.8633 1.04 20.73 0.8 20.49C0.566667 20.2433 0.45 19.96 0.45 19.64ZM1.04 23.77C1.04 24.01 1.15333 24.13 1.38 24.13C1.47333 24.13 1.57 24.07 1.67 23.95C1.77667 23.8233 1.85 23.6267 1.89 23.36L1.98 22.74C1.35333 23.0933 1.04 23.4367 1.04 23.77ZM8.53141 17.64C8.68474 17.48 8.87141 17.4 9.09141 17.4C9.31141 17.4 9.49807 17.48 9.65141 17.64C9.81141 17.7933 9.89141 17.98 9.89141 18.2C9.89141 18.42 9.81141 18.6067 9.65141 18.76C9.49807 18.9133 9.31141 18.99 9.09141 18.99C8.87141 18.99 8.68474 18.9133 8.53141 18.76C8.37807 18.6067 8.30141 18.42 8.30141 18.2C8.30141 17.98 8.37807 17.7933 8.53141 17.64ZM8.12141 20.57C8.18807 20.45 8.31474 20.36 8.50141 20.3C8.68807 20.2333 8.87141 20.2 9.05141 20.2C9.23807 20.2 9.40141 20.2233 9.54141 20.27C9.28141 22.2767 9.15141 23.29 9.15141 23.31C9.11807 23.4433 9.10141 23.5567 9.10141 23.65C9.10141 23.7367 9.10807 23.8133 9.12141 23.88C9.14807 24.0533 9.26807 24.14 9.48141 24.14C9.70141 24.14 9.90141 24 10.0814 23.72C10.2681 23.4333 10.4081 23.11 10.5014 22.75C10.5481 22.7767 10.6214 22.8567 10.7214 22.99C10.8214 23.1233 10.8814 23.2233 10.9014 23.29C10.7681 23.8233 10.5414 24.2533 10.2214 24.58C9.90141 24.9067 9.51807 25.07 9.07141 25.07C8.62474 25.07 8.29141 24.96 8.07141 24.74C7.85807 24.52 7.75141 24.2367 7.75141 23.89C7.75141 23.8167 7.75474 23.74 7.76141 23.66L8.12141 20.57ZM14.5359 25.05C13.9225 25.05 13.5159 24.8367 13.3159 24.41C12.9692 24.8433 12.5225 25.06 11.9759 25.06C11.4359 25.06 10.9792 24.8767 10.6059 24.51C10.2392 24.1433 10.0559 23.66 10.0559 23.06C10.0559 22.1867 10.3125 21.49 10.8259 20.97C11.3392 20.45 11.9892 20.19 12.7759 20.19C12.7959 20.19 12.8159 20.19 12.8359 20.19C13.1692 20.19 13.4759 20.2467 13.7559 20.36C13.9359 20.2467 14.1525 20.19 14.4059 20.19C14.6659 20.19 14.8525 20.2233 14.9659 20.29C14.9059 20.7833 14.8425 21.27 14.7759 21.75C14.7092 22.2233 14.6625 22.56 14.6359 22.76C14.5759 23.2133 14.5459 23.54 14.5459 23.74C14.5459 24.0067 14.6525 24.14 14.8659 24.14C15.0325 24.14 15.2092 24.03 15.3959 23.81C15.5825 23.5833 15.7459 23.23 15.8859 22.75C16.0792 22.9233 16.2125 23.1167 16.2859 23.33C16.0925 23.9633 15.8325 24.41 15.5059 24.67C15.1792 24.9233 14.8559 25.05 14.5359 25.05ZM12.9259 20.97C12.4992 20.97 12.1592 21.1333 11.9059 21.46C11.6592 21.78 11.5125 22.26 11.4659 22.9C11.4592 22.96 11.4559 23.0167 11.4559 23.07C11.4559 23.3967 11.5325 23.6567 11.6859 23.85C11.8459 24.0433 12.0492 24.14 12.2959 24.14C12.7159 24.14 13.0325 23.8433 13.2459 23.25L13.4859 21.09C13.2925 21.01 13.1059 20.97 12.9259 20.97ZM18.3844 25L18.7644 21.68C18.7644 21.4933 18.7177 21.34 18.6244 21.22C18.5377 21.0933 18.381 21.03 18.1544 21.03C17.9277 21.03 17.741 21.14 17.5944 21.36C17.4477 21.5733 17.3544 21.8 17.3144 22.04C17.081 23.7 16.951 24.6867 16.9244 25H15.5844L16.1344 20.3C16.4144 20.2267 16.6277 20.19 16.7744 20.19C17.1944 20.19 17.4244 20.33 17.4644 20.61C17.791 20.33 18.1477 20.19 18.5344 20.19C19.3077 20.19 19.801 20.42 20.0144 20.88C20.341 20.4133 20.8077 20.18 21.4144 20.18C21.861 20.18 22.2144 20.2967 22.4744 20.53C22.7344 20.7567 22.8644 21.0433 22.8644 21.39C22.8644 21.49 22.8444 21.6667 22.8044 21.92C22.651 22.92 22.5744 23.5067 22.5744 23.68C22.5744 23.9933 22.6777 24.15 22.8844 24.15C23.0577 24.15 23.241 24.0367 23.4344 23.81C23.6344 23.5767 23.7944 23.22 23.9144 22.74C24.141 22.98 24.2777 23.17 24.3244 23.31C23.9777 24.47 23.3644 25.05 22.4844 25.05C22.071 25.05 21.7644 24.9233 21.5644 24.67C21.3644 24.4167 21.2644 24.15 21.2644 23.87L21.5044 21.66C21.5044 21.48 21.4577 21.33 21.3644 21.21C21.271 21.09 21.121 21.03 20.9144 21.03C20.7144 21.03 20.5377 21.1067 20.3844 21.26C20.231 21.4133 20.1244 21.61 20.0644 21.85C19.8644 23.5433 19.7344 24.5933 19.6744 25H18.3844ZM26.2215 20.19C26.8348 20.19 27.3448 20.3867 27.7515 20.78C28.1648 21.1733 28.3715 21.6533 28.3715 22.22C28.3715 23.08 28.1182 23.77 27.6115 24.29C27.1115 24.8033 26.5048 25.06 25.7915 25.06C25.0782 25.06 24.5115 24.8567 24.0915 24.45C23.6782 24.0433 23.4715 23.54 23.4715 22.94C23.4715 22.1 23.7282 21.4333 24.2415 20.94C24.7615 20.44 25.4215 20.19 26.2215 20.19ZM26.0215 21C25.7082 21 25.4448 21.18 25.2315 21.54C25.0182 21.9 24.9015 22.3533 24.8815 22.9C24.8815 23.2867 24.9582 23.6067 25.1115 23.86C25.2715 24.1133 25.5115 24.24 25.8315 24.24C26.1515 24.24 26.4182 24.0633 26.6315 23.71C26.8515 23.3567 26.9615 22.9533 26.9615 22.5C26.9615 22.0467 26.8848 21.6867 26.7315 21.42C26.5782 21.14 26.3415 21 26.0215 21ZM31.6468 23.88L31.8868 21.65C31.8868 21.47 31.8401 21.32 31.7468 21.2C31.6535 21.08 31.4968 21.02 31.2768 21.02C31.0635 21.02 30.8801 21.1167 30.7268 21.31C30.5801 21.4967 30.4868 21.7333 30.4468 22.02C30.2068 23.8467 30.0801 24.84 30.0668 25H28.7168L29.2668 20.29C29.5468 20.2167 29.7601 20.18 29.9068 20.18C30.3535 20.18 30.5868 20.3433 30.6068 20.67C30.9335 20.35 31.3235 20.19 31.7768 20.19C32.2368 20.19 32.5968 20.3033 32.8568 20.53C33.1168 20.7567 33.2468 21.0433 33.2468 21.39C33.2468 21.4833 33.2268 21.66 33.1868 21.92C33.0335 22.9333 32.9568 23.5233 32.9568 23.69C32.9568 23.9967 33.0601 24.15 33.2668 24.15C33.7201 24.15 34.0635 23.6767 34.2968 22.73C34.5235 22.97 34.6601 23.16 34.7068 23.3C34.3535 24.4733 33.7401 25.06 32.8668 25.06C32.4535 25.06 32.1468 24.9333 31.9468 24.68C31.7468 24.4267 31.6468 24.16 31.6468 23.88ZM37.8023 17.79C37.849 17.6767 37.9523 17.5833 38.1123 17.51C38.279 17.43 38.4757 17.39 38.7023 17.39C38.9357 17.39 39.109 17.4233 39.2223 17.49C39.1557 18.01 39.049 18.8267 38.9023 19.94C38.5957 22.2667 38.4423 23.55 38.4423 23.79C38.4423 24.0233 38.5423 24.14 38.7423 24.14C38.9157 24.14 39.0957 24.0333 39.2823 23.82C39.469 23.6 39.639 23.2433 39.7923 22.75C39.979 22.93 40.109 23.1267 40.1823 23.34C39.9423 24.1333 39.5657 24.6467 39.0523 24.88C38.819 24.9933 38.599 25.05 38.3923 25.05C37.799 25.05 37.4023 24.8367 37.2023 24.41C36.8557 24.8433 36.4123 25.06 35.8723 25.06C35.3323 25.06 34.8757 24.8767 34.5023 24.51C34.1357 24.1433 33.9523 23.66 33.9523 23.06C33.9523 22.1867 34.209 21.49 34.7223 20.97C35.2357 20.45 35.8857 20.19 36.6723 20.19C36.6923 20.19 36.7123 20.19 36.7323 20.19C37.0057 20.19 37.2623 20.23 37.5023 20.31L37.8023 17.79ZM36.8223 20.97C36.3957 20.97 36.0557 21.1333 35.8023 21.46C35.5557 21.78 35.409 22.26 35.3623 22.9C35.3557 22.96 35.3523 23.0167 35.3523 23.07C35.3523 23.3967 35.429 23.6567 35.5823 23.85C35.7423 24.0433 35.9457 24.14 36.1923 24.14C36.6123 24.14 36.929 23.8433 37.1423 23.25L37.4023 21.1C37.1823 21.0133 36.989 20.97 36.8223 20.97ZM43.6409 21.94C44.1675 22.3267 44.4309 22.7833 44.4309 23.31C44.4309 23.8367 44.2242 24.26 43.8109 24.58C43.3975 24.9 42.8775 25.06 42.2509 25.06C41.8442 25.06 41.5042 24.96 41.2309 24.76C40.9642 24.5533 40.8309 24.3 40.8309 24C40.8309 23.7 40.9309 23.4633 41.1309 23.29C41.3309 23.11 41.5809 23 41.8809 22.96C41.7409 23.16 41.6709 23.3533 41.6709 23.54C41.6709 23.72 41.7342 23.8667 41.8609 23.98C41.9875 24.0933 42.1475 24.15 42.3409 24.15C42.5342 24.15 42.6942 24.08 42.8209 23.94C42.9475 23.7933 43.0109 23.6267 43.0109 23.44C43.0109 23.1333 42.8675 22.86 42.5809 22.62C42.4075 22.48 42.2209 22.35 42.0209 22.23C41.8209 22.1033 41.7142 22.0367 41.7009 22.03C41.6742 22.01 41.6475 21.9933 41.6209 21.98C41.5009 22.12 41.3275 22.3133 41.1009 22.56C40.8742 22.8 40.6942 22.9933 40.5609 23.14C40.1875 23.5467 39.9775 23.8867 39.9309 24.16C39.9175 24.2133 39.9109 24.3167 39.9109 24.47C39.9109 24.6167 39.9542 24.77 40.0409 24.93C40.1342 25.09 40.2442 25.21 40.3709 25.29C40.4975 25.37 40.6209 25.4333 40.7409 25.48C40.8675 25.5333 40.9742 25.57 41.0609 25.59C41.1542 25.61 41.2009 25.6233 41.2009 25.63C41.2009 25.6767 41.1275 25.73 40.9809 25.79C40.7075 25.89 40.4209 25.94 40.1209 25.94C39.8275 25.94 39.5409 25.8333 39.2609 25.62C38.8809 25.3267 38.6909 24.9367 38.6909 24.45C38.6909 24.15 38.7675 23.8533 38.9209 23.56C39.1942 23.04 39.8342 22.3267 40.8409 21.42C40.5942 21.1733 40.4709 20.91 40.4709 20.63C40.4709 20.35 40.5742 20.1133 40.7809 19.92C40.9942 19.7267 41.2442 19.63 41.5309 19.63C41.7909 19.63 42.0175 19.7333 42.2109 19.94C42.3375 20.08 42.4009 20.2567 42.4009 20.47C42.4009 20.6833 42.3309 20.9233 42.1909 21.19C42.9042 21.51 43.3875 21.76 43.6409 21.94ZM41.4709 20.81C41.6309 20.6433 41.7109 20.5233 41.7109 20.45C41.7109 20.2833 41.6375 20.1933 41.4909 20.18C41.3242 20.18 41.2409 20.2733 41.2409 20.46C41.2409 20.5733 41.3175 20.69 41.4709 20.81Z" fill="white"/>
</svg>
