<svg width="192" height="31" viewBox="0 0 192 31" fill="none" xmlns="http://www.w3.org/2000/svg">
<path d="M16.9511 6.69098L16 3.76393L15.0489 6.69098L13.0283 12.9098H6.48944H3.41175L5.90165 14.7188L11.1917 18.5623L9.17109 24.7812L8.22003 27.7082L10.7099 25.8992L16 22.0557L21.2901 25.8992L23.78 27.7082L22.8289 24.7812L20.8083 18.5623L26.0984 14.7188L28.5882 12.9098H25.5106H18.9717L16.9511 6.69098Z" stroke="black" stroke-width="2"/>
<path d="M56.9511 6.69098L56 3.76393L55.0489 6.69098L53.0283 12.9098H46.4894H43.4118L45.9016 14.7188L51.1917 18.5623L49.1711 24.7812L48.22 27.7082L50.7099 25.8992L56 22.0557L61.2901 25.8992L63.78 27.7082L62.8289 24.7812L60.8083 18.5623L66.0984 14.7188L68.5882 12.9098H65.5106H58.9717L56.9511 6.69098Z" stroke="black" stroke-width="2"/>
<path d="M96.9511 6.69098L96 3.76393L95.0489 6.69098L93.0283 12.9098H86.4894H83.4118L85.9016 14.7188L91.1917 18.5623L89.1711 24.7812L88.22 27.7082L90.7099 25.8992L96 22.0557L101.29 25.8992L103.78 27.7082L102.829 24.7812L100.808 18.5623L106.098 14.7188L108.588 12.9098H105.511H98.9717L96.9511 6.69098Z" stroke="black" stroke-width="2"/>
<path d="M136.951 6.69098L136 3.76393L135.049 6.69098L133.028 12.9098H126.489H123.412L125.902 14.7188L131.192 18.5623L129.171 24.7812L128.22 27.7082L130.71 25.8992L136 22.0557L141.29 25.8992L143.78 27.7082L142.829 24.7812L140.808 18.5623L146.098 14.7188L148.588 12.9098H145.511H138.972L136.951 6.69098Z" stroke="black" stroke-width="2"/>
<path d="M176.951 6.69098L176 3.76393L175.049 6.69098L173.028 12.9098H166.489H163.412L165.902 14.7188L171.192 18.5623L169.171 24.7812L168.22 27.7082L170.71 25.8992L176 22.0557L181.29 25.8992L183.78 27.7082L182.829 24.7812L180.808 18.5623L186.098 14.7188L188.588 12.9098H185.511H178.972L176.951 6.69098Z" stroke="black" stroke-width="2"/>
</svg>
