<svg width="72" height="47" viewBox="0 0 72 47" fill="none" xmlns="http://www.w3.org/2000/svg">
<path d="M31.2284 2.63648L35.5008 7.73405L39.7733 2.63648H31.2284ZM41.746 4.1219L38.2108 8.33699H44.5097L41.746 4.1219ZM44.1874 10.968H35.5008H26.8143L35.5008 21.7277L44.1874 10.968ZM26.492 8.33699H32.7909L29.2557 4.1219L26.492 8.33699ZM47.6982 10.535L36.37 24.567C36.1503 24.841 35.8329 25 35.5008 25C35.1688 25 34.8563 24.841 34.6317 24.567L23.3035 10.535C22.9275 10.0691 22.8982 9.37294 23.2303 8.86867L28.6991 0.537163C28.9188 0.202806 29.2703 0 29.6414 0L41.3602 0C41.7313 0 42.0829 0.197325 42.3026 0.537163L47.7714 8.86867C48.1034 9.37294 48.0693 10.0691 47.6982 10.535Z" fill="#71675D"/>
<path d="M0.72 32.424C0.72 31.2827 1.216 30.3867 2.208 29.736C3.2 29.0853 4.34133 28.76 5.632 28.76C7.28533 28.76 8.736 29.2347 9.984 30.184C10.6027 30.664 11.0827 31.304 11.424 32.104C11.7653 32.8933 11.936 33.768 11.936 34.728C11.936 36.616 11.3973 38.152 10.32 39.336C9.2 40.5413 7.79733 41.144 6.112 41.144C5.73867 41.144 5.344 41.096 4.928 41C4.512 40.904 4.18133 40.776 3.936 40.616C3.54133 40.9147 3.03467 41.064 2.416 41.064C1.808 41.064 1.33333 40.8933 0.992 40.552C0.650667 40.2107 0.48 39.7733 0.48 39.24C0.48 37.9813 1.43467 36.9093 3.344 36.024C3.39733 35.576 3.472 34.9733 3.568 34.216C3.67467 33.448 3.75467 32.8293 3.808 32.36C3.872 31.8907 3.91467 31.5813 3.936 31.432C4.37333 31.1547 4.88 31.016 5.456 31.016C5.72267 31.016 5.97867 31.0427 6.224 31.096L5.216 37.928C5.12 38.536 4.98667 39.0427 4.816 39.448C5.14667 39.5333 5.41333 39.576 5.616 39.576C6.84267 39.576 7.792 39.112 8.464 38.184C9.15733 37.2133 9.504 36.04 9.504 34.664C9.504 32.904 8.86933 31.64 7.6 30.872C6.896 30.4453 6.12267 30.232 5.28 30.232C4.20267 30.232 3.34933 30.5253 2.72 31.112C2.35733 31.4427 2.176 31.8427 2.176 32.312C2.176 32.5573 2.25067 32.792 2.4 33.016C2.54933 33.2293 2.81067 33.352 3.184 33.384L3.024 34.424C2.24533 34.3813 1.664 34.168 1.28 33.784C0.906667 33.3893 0.72 32.936 0.72 32.424ZM1.664 39.032C1.664 39.416 1.84533 39.608 2.208 39.608C2.35733 39.608 2.512 39.512 2.672 39.32C2.84267 39.1173 2.96 38.8027 3.024 38.376L3.168 37.384C2.16533 37.9493 1.664 38.4987 1.664 39.032ZM13.6503 29.224C13.8956 28.968 14.1943 28.84 14.5463 28.84C14.8983 28.84 15.1969 28.968 15.4423 29.224C15.6983 29.4693 15.8263 29.768 15.8263 30.12C15.8263 30.472 15.6983 30.7707 15.4423 31.016C15.1969 31.2613 14.8983 31.384 14.5463 31.384C14.1943 31.384 13.8956 31.2613 13.6503 31.016C13.4049 30.7707 13.2823 30.472 13.2823 30.12C13.2823 29.768 13.4049 29.4693 13.6503 29.224ZM12.9943 33.912C13.1009 33.72 13.3036 33.576 13.6023 33.48C13.9009 33.3733 14.1943 33.32 14.4823 33.32C14.7809 33.32 15.0423 33.3573 15.2663 33.432C14.8503 36.6427 14.6423 38.264 14.6423 38.296C14.5889 38.5093 14.5623 38.6907 14.5623 38.84C14.5623 38.9787 14.5729 39.1013 14.5943 39.208C14.6369 39.4853 14.8289 39.624 15.1703 39.624C15.5223 39.624 15.8423 39.4 16.1302 38.952C16.4289 38.4933 16.6529 37.976 16.8023 37.4C16.8769 37.4427 16.9943 37.5707 17.1543 37.784C17.3143 37.9973 17.4103 38.1573 17.4423 38.264C17.2289 39.1173 16.8663 39.8053 16.3543 40.328C15.8423 40.8507 15.2289 41.112 14.5143 41.112C13.7996 41.112 13.2663 40.936 12.9143 40.584C12.5729 40.232 12.4023 39.7787 12.4023 39.224C12.4023 39.1067 12.4076 38.984 12.4183 38.856L12.9943 33.912ZM23.2574 41.08C22.276 41.08 21.6254 40.7387 21.3054 40.056C20.7507 40.7493 20.036 41.096 19.1614 41.096C18.2974 41.096 17.5667 40.8027 16.9694 40.216C16.3827 39.6293 16.0894 38.856 16.0894 37.896C16.0894 36.4987 16.5 35.384 17.3214 34.552C18.1427 33.72 19.1827 33.304 20.4414 33.304C20.4734 33.304 20.5054 33.304 20.5374 33.304C21.0707 33.304 21.5614 33.3947 22.0094 33.576C22.2974 33.3947 22.644 33.304 23.0494 33.304C23.4654 33.304 23.764 33.3573 23.9454 33.464C23.8494 34.2533 23.748 35.032 23.6414 35.8C23.5347 36.5573 23.46 37.096 23.4174 37.416C23.3214 38.1413 23.2734 38.664 23.2734 38.984C23.2734 39.4107 23.444 39.624 23.7854 39.624C24.052 39.624 24.3347 39.448 24.6334 39.096C24.932 38.7333 25.1934 38.168 25.4174 37.4C25.7267 37.6773 25.94 37.9867 26.0574 38.328C25.748 39.3413 25.332 40.056 24.8094 40.472C24.2867 40.8773 23.7694 41.08 23.2574 41.08ZM20.6814 34.552C19.9987 34.552 19.4547 34.8133 19.0494 35.336C18.6547 35.848 18.42 36.616 18.3454 37.64C18.3347 37.736 18.3294 37.8267 18.3294 37.912C18.3294 38.4347 18.452 38.8507 18.6974 39.16C18.9534 39.4693 19.2787 39.624 19.6734 39.624C20.3454 39.624 20.852 39.1493 21.1934 38.2L21.5774 34.744C21.268 34.616 20.9694 34.552 20.6814 34.552ZM29.415 41L30.023 35.688C30.023 35.3893 29.9483 35.144 29.799 34.952C29.6603 34.7493 29.4097 34.648 29.047 34.648C28.6843 34.648 28.3857 34.824 28.151 35.176C27.9163 35.5173 27.767 35.88 27.703 36.264C27.3297 38.92 27.1217 40.4987 27.079 41H24.935L25.815 33.48C26.263 33.3627 26.6043 33.304 26.839 33.304C27.511 33.304 27.879 33.528 27.943 33.976C28.4657 33.528 29.0363 33.304 29.655 33.304C30.8923 33.304 31.6817 33.672 32.023 34.408C32.5457 33.6613 33.2923 33.288 34.263 33.288C34.9777 33.288 35.543 33.4747 35.959 33.848C36.375 34.2107 36.583 34.6693 36.583 35.224C36.583 35.384 36.551 35.6667 36.487 36.072C36.2417 37.672 36.119 38.6107 36.119 38.888C36.119 39.3893 36.2843 39.64 36.615 39.64C36.8923 39.64 37.1857 39.4587 37.495 39.096C37.815 38.7227 38.071 38.152 38.263 37.384C38.6257 37.768 38.8443 38.072 38.919 38.296C38.3643 40.152 37.383 41.08 35.975 41.08C35.3137 41.08 34.823 40.8773 34.503 40.472C34.183 40.0667 34.023 39.64 34.023 39.192L34.407 35.656C34.407 35.368 34.3323 35.128 34.183 34.936C34.0337 34.744 33.7937 34.648 33.463 34.648C33.143 34.648 32.8603 34.7707 32.615 35.016C32.3697 35.2613 32.199 35.576 32.103 35.96C31.783 38.6693 31.575 40.3493 31.479 41H29.415ZM41.9544 33.304C42.9357 33.304 43.7517 33.6187 44.4024 34.248C45.0637 34.8773 45.3944 35.6453 45.3944 36.552C45.3944 37.928 44.989 39.032 44.1784 39.864C43.3784 40.6853 42.4077 41.096 41.2664 41.096C40.125 41.096 39.2184 40.7707 38.5464 40.12C37.885 39.4693 37.5544 38.664 37.5544 37.704C37.5544 36.36 37.965 35.2933 38.7864 34.504C39.6184 33.704 40.6744 33.304 41.9544 33.304ZM41.6344 34.6C41.133 34.6 40.7117 34.888 40.3704 35.464C40.029 36.04 39.8424 36.7653 39.8104 37.64C39.8104 38.2587 39.933 38.7707 40.1784 39.176C40.4344 39.5813 40.8184 39.784 41.3304 39.784C41.8424 39.784 42.269 39.5013 42.6104 38.936C42.9624 38.3707 43.1384 37.7253 43.1384 37C43.1384 36.2747 43.0157 35.6987 42.7704 35.272C42.525 34.824 42.1464 34.6 41.6344 34.6ZM50.6349 39.208L51.0189 35.64C51.0189 35.352 50.9442 35.112 50.7949 34.92C50.6455 34.728 50.3949 34.632 50.0429 34.632C49.7015 34.632 49.4082 34.7867 49.1629 35.096C48.9282 35.3947 48.7789 35.7733 48.7149 36.232C48.3309 39.1547 48.1282 40.744 48.1069 41H45.9469L46.8269 33.464C47.2749 33.3467 47.6162 33.288 47.8509 33.288C48.5655 33.288 48.9389 33.5493 48.9709 34.072C49.4935 33.56 50.1175 33.304 50.8429 33.304C51.5789 33.304 52.1549 33.4853 52.5709 33.848C52.9869 34.2107 53.1949 34.6693 53.1949 35.224C53.1949 35.3733 53.1629 35.656 53.0989 36.072C52.8535 37.6933 52.7309 38.6373 52.7309 38.904C52.7309 39.3947 52.8962 39.64 53.2269 39.64C53.9522 39.64 54.5015 38.8827 54.8749 37.368C55.2375 37.752 55.4562 38.056 55.5309 38.28C54.9655 40.1573 53.9842 41.096 52.5869 41.096C51.9255 41.096 51.4349 40.8933 51.1149 40.488C50.7949 40.0827 50.6349 39.656 50.6349 39.208ZM60.4838 29.464C60.5584 29.2827 60.7238 29.1333 60.9798 29.016C61.2464 28.888 61.5611 28.824 61.9237 28.824C62.2971 28.824 62.5744 28.8773 62.7558 28.984C62.6491 29.816 62.4784 31.1227 62.2438 32.904C61.7531 36.6267 61.5078 38.68 61.5078 39.064C61.5078 39.4373 61.6678 39.624 61.9878 39.624C62.2651 39.624 62.5531 39.4533 62.8518 39.112C63.1504 38.76 63.4224 38.1893 63.6678 37.4C63.9664 37.688 64.1744 38.0027 64.2918 38.344C63.9078 39.6133 63.3051 40.4347 62.4838 40.808C62.1104 40.9893 61.7584 41.08 61.4278 41.08C60.4784 41.08 59.8438 40.7387 59.5238 40.056C58.9691 40.7493 58.2598 41.096 57.3958 41.096C56.5318 41.096 55.8011 40.8027 55.2038 40.216C54.6171 39.6293 54.3238 38.856 54.3238 37.896C54.3238 36.4987 54.7344 35.384 55.5558 34.552C56.3771 33.72 57.4171 33.304 58.6758 33.304C58.7078 33.304 58.7398 33.304 58.7718 33.304C59.2091 33.304 59.6198 33.368 60.0038 33.496L60.4838 29.464ZM58.9158 34.552C58.2331 34.552 57.6891 34.8133 57.2838 35.336C56.8891 35.848 56.6544 36.616 56.5798 37.64C56.5691 37.736 56.5638 37.8267 56.5638 37.912C56.5638 38.4347 56.6864 38.8507 56.9318 39.16C57.1878 39.4693 57.5131 39.624 57.9078 39.624C58.5798 39.624 59.0864 39.1493 59.4278 38.2L59.8438 34.76C59.4918 34.6213 59.1824 34.552 58.9158 34.552ZM69.8254 36.104C70.668 36.7227 71.0894 37.4533 71.0894 38.296C71.0894 39.1387 70.7587 39.816 70.0974 40.328C69.436 40.84 68.604 41.096 67.6014 41.096C66.9507 41.096 66.4067 40.936 65.9694 40.616C65.5427 40.2853 65.3294 39.88 65.3294 39.4C65.3294 38.92 65.4894 38.5413 65.8094 38.264C66.1294 37.976 66.5294 37.8 67.0094 37.736C66.7854 38.056 66.6734 38.3653 66.6734 38.664C66.6734 38.952 66.7747 39.1867 66.9774 39.368C67.18 39.5493 67.436 39.64 67.7454 39.64C68.0547 39.64 68.3107 39.528 68.5134 39.304C68.716 39.0693 68.8174 38.8027 68.8174 38.504C68.8174 38.0133 68.588 37.576 68.1294 37.192C67.852 36.968 67.5534 36.76 67.2334 36.568C66.9134 36.3653 66.7427 36.2587 66.7214 36.248C66.6787 36.216 66.636 36.1893 66.5934 36.168C66.4014 36.392 66.124 36.7013 65.7614 37.096C65.3987 37.48 65.1107 37.7893 64.8974 38.024C64.3 38.6747 63.964 39.2187 63.8894 39.656C63.868 39.7413 63.8574 39.9067 63.8574 40.152C63.8574 40.3867 63.9267 40.632 64.0654 40.888C64.2147 41.144 64.3907 41.336 64.5934 41.464C64.796 41.592 64.9934 41.6933 65.1854 41.768C65.388 41.8533 65.5587 41.912 65.6974 41.944C65.8467 41.976 65.9214 41.9973 65.9214 42.008C65.9214 42.0827 65.804 42.168 65.5694 42.264C65.132 42.424 64.6734 42.504 64.1934 42.504C63.724 42.504 63.2654 42.3333 62.8174 41.992C62.2094 41.5227 61.9054 40.8987 61.9054 40.12C61.9054 39.64 62.028 39.1653 62.2734 38.696C62.7107 37.864 63.7347 36.7227 65.3454 35.272C64.9507 34.8773 64.7534 34.456 64.7534 34.008C64.7534 33.56 64.9187 33.1813 65.2494 32.872C65.5907 32.5627 65.9907 32.408 66.4494 32.408C66.8654 32.408 67.228 32.5733 67.5374 32.904C67.74 33.128 67.8414 33.4107 67.8414 33.752C67.8414 34.0933 67.7294 34.4773 67.5054 34.904C68.6467 35.416 69.42 35.816 69.8254 36.104ZM66.3534 34.296C66.6094 34.0293 66.7374 33.8373 66.7374 33.72C66.7374 33.4533 66.62 33.3093 66.3854 33.288C66.1187 33.288 65.9854 33.4373 65.9854 33.736C65.9854 33.9173 66.108 34.104 66.3534 34.296Z" fill="black"/>
</svg>
