<svg width="292" height="49" viewBox="0 0 292 49" fill="none" xmlns="http://www.w3.org/2000/svg">
<path d="M26.9511 6.69098L26 3.76393L25.0489 6.69098L20.7832 19.8197H6.97887H3.90119L6.39109 21.6287L17.559 29.7426L13.2932 42.8713L12.3422 45.7984L14.8321 43.9894L26 35.8754L37.1679 43.9894L39.6578 45.7984L38.7068 42.8713L34.441 29.7426L45.6089 21.6287L48.0988 19.8197H45.0211H31.2168L26.9511 6.69098Z" stroke="black" stroke-width="2"/>
<path d="M86.9511 6.69098L86 3.76393L85.0489 6.69098L80.7832 19.8197H66.9789H63.9012L66.3911 21.6287L77.559 29.7426L73.2932 42.8713L72.3422 45.7984L74.8321 43.9894L86 35.8754L97.1679 43.9894L99.6578 45.7984L98.7068 42.8713L94.441 29.7426L105.609 21.6287L108.099 19.8197H105.021H91.2168L86.9511 6.69098Z" stroke="black" stroke-width="2"/>
<path d="M146.951 6.69098L146 3.76393L145.049 6.69098L140.783 19.8197H126.979H123.901L126.391 21.6287L137.559 29.7426L133.293 42.8713L132.342 45.7984L134.832 43.9894L146 35.8754L157.168 43.9894L159.658 45.7984L158.707 42.8713L154.441 29.7426L165.609 21.6287L168.099 19.8197H165.021H151.217L146.951 6.69098Z" stroke="black" stroke-width="2"/>
<path d="M206.951 6.69098L206 3.76393L205.049 6.69098L200.783 19.8197H186.979H183.901L186.391 21.6287L197.559 29.7426L193.293 42.8713L192.342 45.7984L194.832 43.9894L206 35.8754L217.168 43.9894L219.658 45.7984L218.707 42.8713L214.441 29.7426L225.609 21.6287L228.099 19.8197H225.021H211.217L206.951 6.69098Z" stroke="black" stroke-width="2"/>
<path d="M266.951 6.69098L266 3.76393L265.049 6.69098L260.783 19.8197H246.979H243.901L246.391 21.6287L257.559 29.7426L253.293 42.8713L252.342 45.7984L254.832 43.9894L266 35.8754L277.168 43.9894L279.658 45.7984L278.707 42.8713L274.441 29.7426L285.609 21.6287L288.099 19.8197H285.021H271.217L266.951 6.69098Z" stroke="black" stroke-width="2"/>
</svg>
