<svg width="40" height="40" viewBox="0 0 40 40" fill="none" xmlns="http://www.w3.org/2000/svg">
<circle cx="20" cy="20" r="19.5" fill="#111111" stroke="#494949"/>
<g clip-path="url(#clip0_122_474)">
<path d="M28.8812 13.864C28.226 14.188 27.5204 14.404 26.7824 14.504C27.5384 14 28.1144 13.204 28.388 12.26C27.6824 12.72 26.9012 13.06 26.0696 13.24C25.4036 12.452 24.4532 11.96 23.402 11.96C21.3824 11.96 19.748 13.776 19.748 16.02C19.748 16.34 19.7804 16.648 19.8416 16.944C16.8068 16.776 14.114 15.16 12.3104 12.704C11.9972 13.304 11.8172 14 11.8172 14.744C11.8172 16.152 12.4616 17.396 13.4408 18.124C12.8432 18.104 12.278 17.92 11.7848 17.616C11.7848 17.632 11.7848 17.648 11.7848 17.668C11.7848 19.636 13.0448 21.276 14.7152 21.648C14.4092 21.74 14.0852 21.792 13.754 21.792C13.52 21.792 13.2896 21.768 13.0664 21.72C13.5308 23.332 14.8808 24.508 16.4792 24.54C15.23 25.628 13.6532 26.276 11.9432 26.276C11.648 26.276 11.3564 26.256 11.072 26.22C12.6884 27.372 14.6108 28.044 16.6736 28.044C23.3948 28.044 27.0704 21.86 27.0704 16.492C27.0704 16.316 27.0668 16.14 27.0596 15.968C27.7724 15.392 28.3916 14.676 28.8812 13.864Z" fill="white"/>
</g>
<defs>
<clipPath id="clip0_122_474">
<rect width="18" height="18" fill="white" transform="translate(11 11)"/>
</clipPath>
</defs>
</svg>
