<svg width="40" height="40" viewBox="0 0 40 40" fill="none" xmlns="http://www.w3.org/2000/svg">
<circle cx="20" cy="20" r="19.5" fill="#111111" stroke="#494949"/>
<g clip-path="url(#clip0_122_473)">
<path d="M26.3 11H13.7C12.2088 11 11 12.2088 11 13.7V26.3C11 27.7912 12.2088 29 13.7 29H26.3C27.7912 29 29 27.7912 29 26.3V13.7C29 12.2088 27.7912 11 26.3 11Z" fill="white"/>
<path d="M26.0117 16.9413C25.8711 16.414 25.4141 15.9921 24.8867 15.8515C23.6914 15.5351 16.4844 15.4999 15.1133 15.8515C14.5859 15.9921 14.1289 16.414 13.9883 16.9413C13.6719 18.2773 13.6367 21.6874 13.9883 23.0585C14.1289 23.5859 14.5859 24.0077 15.1133 24.1484C16.3789 24.4999 23.5859 24.4999 24.8867 24.1484C25.4141 24.0077 25.8711 23.5859 26.0117 23.0585C26.3281 21.7929 26.3281 18.2421 26.0117 16.9413Z" fill="#494949"/>
<path d="M18.7344 18.1367V21.8633L22.0039 20" fill="white"/>
</g>
<defs>
<clipPath id="clip0_122_473">
<rect width="18" height="18" fill="white" transform="translate(11 11)"/>
</clipPath>
</defs>
</svg>
